<svg xmlns="http://www.w3.org/2000/svg" viewBox="0 0 64 64" width="64" height="64">
  <!-- Shoe body -->
  <path d="M 12 48 
           Q 8 42 10 36 
           L 14 28 
           Q 16 24 20 26 
           L 28 30 
           Q 32 34 36 30 
           L 48 26 
           Q 52 24 54 28 
           L 58 36 
           Q 60 42 56 48 
           Q 52 54 48 54 
           L 20 54 
           Q 16 54 12 48 Z" 
        fill="#4A90E2" 
        stroke="#2C5F8D" 
        stroke-width="1.5"/>
  
  <!-- Shoe tongue/laces -->
  <ellipse cx="36" cy="32" rx="10" ry="6" fill="#2C5F8D" opacity="0.4"/>
  
  <!-- Sole -->
  <path d="M 16 54 
           Q 14 56 16 58 
           L 48 58 
           Q 50 56 48 54" 
        fill="#1A3A5C"/>
  
  <!-- Decorative line -->
  <path d="M 22 42 
           Q 30 38 38 42" 
        stroke="#2C5F8D" 
        stroke-width="1.5" 
        fill="none" 
        opacity="0.6"/>
</svg>
